<svg xmlns="http://www.w3.org/2000/svg" viewBox="0 0 152.03 39.59" style="color:#00408E" role="img" aria-label="Atrea">
	<path fill="currentColor" d="M103.372 22.397l1.29-6.187c.026-.1 0-.236-.055-.266a.431.431 0 00-.234-.131h-9.926a.963.963 0 00-.843.686s-.663 3.109-1.421 6.531h10.372a.942.942 0 00.817-.633zm-3.263-.948h-3.952l.717-3.426h3.945zm6.871 6.452h-3.554c-.263 1.292-.9 4.528-.9 4.528a2.086 2.086 0 00-.132.393h15.137a3.717 3.717 0 010-.709l1.291-6.162a2.352 2.352 0 012.237-1.817h11.481c.871-4.054 1.685-7.9 1.685-7.9a.28.28 0 00-.052-.292.38.38 0 00-.239-.076h-10.528a.933.933 0 00-.843.658l-.924 4.266h3l.579-2.635h5.006l-.976 4.447h-8.061c-3.446.086-5.288.9-6.294 5.063l-.494 2.315h-7.875zM54.873 14.894l-.315 1.424h-3.533c-1.575 7.664-3.37 16.083-3.37 16.083a.4.4 0 00.057.317.356.356 0 00.237.1h17.189l3.479-16.611h-5.952l-.551 2.553h2.289l-2.4 11.218H51.42l2.4-11.218h2.372l1.4-6.583h-2.4l1.687-7.821h-3.348c-.266 1.292-1.19 5.715-2.192 10.534z"/>
	<path fill="currentColor" d="M120.218 26.243s-1.26 6.158-1.26 6.185a.371.371 0 00.052.29.33.33 0 00.238.1h11.429c.208-1.076.868-4.079 1.545-7.263h-11.156a.979.979 0 00-.848.688zm3.112.815h4.973l-.762 3.606h-4.975zM80.384 15.392a1.862 1.862 0 01.342 1.5l-.79 3.687h-1.5l.869-3.977a.329.329 0 00-.029-.287.3.3 0 00-.263-.107h-8.948l-3.423 16.611H88.76a1.664 1.664 0 010-.709l3.444-15.9a2.392 2.392 0 012.243-1.815h9.926a1.68 1.68 0 011.345.655 1.663 1.663 0 01.315 1.449l-1.292 6.189a2.322 2.322 0 01-2.186 1.786H91.894c-.869 3.981-1.71 7.953-1.71 7.953a.237.237 0 00.021.29.354.354 0 00.266.1h9.742a1.021 1.021 0 00.893-.709l.9-4.212h-3.292l-.575 2.763h-3.954l.974-4.554h12.22l1.709-8.113c.975-4.733-.4-5.764-5.237-5.816h-8.975c-1.533 0-3.931 0-5.533 2.32a11.322 11.322 0 00-1.582 4.446l-2.367 11.035H70.878l2.4-11.218h2.874l-.847 4.005h6.794l1.266-6.031c.18-1.081.444-2.266-.341-3.318-.824-1.187-2.322-1.187-3.606-1.24h-15.91l-.552 2.581h16.062a1.815 1.815 0 011.366.636z"/>
	<path fill="currentColor" d="M138.944 17.893c.287-1.418.553-2.917-.265-4.159-1-1.5-2.815-1.5-4.369-1.553h-9.685a7.179 7.179 0 00-4.9 1.451 7.377 7.377 0 00-2.047 4.13l-.61 3.031h3.1c.189-.9 1-4.555 1-4.555a2.341 2.341 0 012.24-1.791h10.526a1.756 1.756 0 011.37.605 1.86 1.86 0 01.344 1.475l-3.5 16.295h13.141l.606-2.839h-9.533zm9.657-3.658h-1.681L146 18.66h.822l.337-1.633h.785l.563 1.633h.917l-.578-1.765a1.664 1.664 0 001.105-1.237 1.229 1.229 0 00-.186-1.026 1.387 1.387 0 00-1.164-.397zm-.522 2.083h-.76l.287-1.369h.817c.5 0 .762.259.71.682a.994.994 0 01-1.056.687z"/>
	<path fill="currentColor" d="M150.871 13.843a3.862 3.862 0 00-2.817-1.161 3.977 3.977 0 100 7.954 3.961 3.961 0 003.976-3.977 4.061 4.061 0 00-1.159-2.816zm-2.817 5.923a3.046 3.046 0 01-2.185-.9 3.18 3.18 0 01-.922-2.211 3.147 3.147 0 013.106-3.108 3.177 3.177 0 012.21.921 3.045 3.045 0 01.9 2.186 3.118 3.118 0 01-3.11 3.113zM90.47 34.25H29.304a1.9 1.9 0 01-1.395-.6 1.786 1.786 0 01-.314-1.476l2.37-11.111H14.372L7.585 39.59h3.418l5.394-15.19h9.168l-1.34 6.161a4.809 4.809 0 00.945 4.159 4.932 4.932 0 003.875 1.842h115.456l.475-2.315H90.47z"/>
	<path fill="currentColor" d="M16.107 12.103v-.025l.057-.028c3.611-6.821 8.375-9.163 18.145-8.925l.893.027-.2.84s-5.985 28.464-5.985 28.516a.217.217 0 00.03.21c.05.078.127.1.26.1h16.931a3.447 3.447 0 010-.709l3.345-15.795h-3.948l.315-1.424h3.923l2.16-10.534h-3.819l-1.686 7.821H44.21l-1.4 6.584h2.344l-2.343 10.828H32.677c1.6-7.37 5.235-24.8 5.235-24.8l1.005-4.66-4.771-.108C23.353-.238 17.772 2.657 13.534 10.633l-.109.189-.053.152-2.262 5.611H0v3.03h13.374z"/>
	<path fill="currentColor" d="M17.457 12.658l-2.553 6.952h15.347l3.161-15.062c-8.638-.084-12.746 2.024-15.955 8.11zm11.687-4.607l-1.863 8.529h-7.693l1-2.422c1.972-3.742 3.895-5.582 8.556-6.108zM0 21.05v3.345h7.948l-5.551 15.19h3.68l6.773-18.536z"/>
</svg>