<?xml version="1.0" encoding="utf-8"?>
<!-- Generator: Adobe Illustrator 26.1.0, SVG Export Plug-In . SVG Version: 6.00 Build 0)  -->
<svg version="1.1" id="Ebene_1" xmlns="http://www.w3.org/2000/svg" xmlns:xlink="http://www.w3.org/1999/xlink" x="0px" y="0px"
	 width="105.1070099px" height="61.3471985px" viewBox="0 0 105.1070099 61.3471985"
	 style="enable-background:new 0 0 105.1070099 61.3471985;" xml:space="preserve">
<style type="text/css">
	.st0{clip-path:url(#SVGID_00000092423002368735310910000012512430108527380886_);fill:#84BD3F;}
	.st1{fill:#FFFFFF;}
</style>
<g>
	<defs>
		<rect id="SVGID_1_" y="-0.0008011" width="104.5510025" height="44.6090012"/>
	</defs>
	<clipPath id="SVGID_00000085228675361983836430000005821333402617898411_">
		<use xlink:href="#SVGID_1_"  style="overflow:visible;"/>
	</clipPath>
	<path style="clip-path:url(#SVGID_00000085228675361983836430000005821333402617898411_);fill:#84BD3F;" d="M104.5519028,38.735199
		V5.8731995c0-3.5909996-1.7190018-5.8730011-5.4610062-5.8730011H5.4608994c-3.7419968,0-5.4609985,2.2820015-5.4609985,5.8730011
		V38.735199c0,3.5910034,1.7190018,5.8730011,5.4609985,5.8730011h93.6299973
		C102.832901,44.6082001,104.5519028,42.3262024,104.5519028,38.735199"/>
</g>
<g>
	<path class="st1" d="M85.7321014,35.4217987c0,1.9169998-1.5680008,3.4850006-3.4850006,3.4850006H6.9701004
		c-1.9169998,0-3.4850006-1.5680008-3.4850006-3.4850006V8.9357986c0-1.9169998,1.5680008-3.4850006,3.4850006-3.4850006h75.2770004
		c1.9169998,0,3.4850006,1.5680008,3.4850006,3.4850006V35.4217987z"/>
	<path d="M18.9036999,19.4969978v-3.4819984h-2.6100006c-3.7139997,0-5.4199991,2.2770004-5.4199991,5.8590012v11.2089996h3.6799994
		V22.2089996c0-1.6739998,0.7030001-2.7120018,2.5100002-2.7120018H18.9036999z"/>
	<path d="M29.1739979,23.2122993h-5.3529987v-0.9370003c0-1.6730003,0.6359997-3.1800003,2.4090004-3.1800003h0.5689983
		c1.7730007,0,2.375,1.507,2.375,3.1800003V23.2122993z M32.8549995,25.9562988V22.610302
		c0-3.9510002-2.007-6.5950012-5.9560013-6.5950012h-0.7019997c-3.9820004,0-6.0559998,2.644001-6.0559998,6.5950012v3.8810005
		c0,4.3829975,2.4419994,6.5919952,6.4909992,6.5919952h5.3859997v-3.2789974h-5.0519981
		c-2.1080017,0-3.1450005-1.3049984-3.1450005-3.0790005v-0.769001H32.8549995z"/>
	<path d="M42.8081017,12.7362976V9.3232994h-2.4420013c-2.4770012,0-4.4169998,1.237999-4.4169998,4.8180008v1.8740005h-2.3419991
		v3.2469978h2.3419991v13.8209991h3.6800003V19.2622986h2.843998v-3.2469978h-2.843998v-1.7400017
		c0-1.237999,0.6699982-1.5390015,1.4389992-1.5390015H42.8081017z"/>
	<rect x="44.7319984" y="9.3232002" width="3.6800003" height="23.7600002"/>
	<path d="M59.9906006,23.2126007h-5.3540001v-0.9370003c0-1.6739998,0.6359978-3.1800003,2.4090004-3.1800003h0.5689964
		c1.7730026,0,2.3760033,1.5060005,2.3760033,3.1800003V23.2126007z M63.6706009,25.9566002v-3.3459969
		c0-3.9500008-2.007-6.5950012-5.9560013-6.5950012h-0.7029991c-3.9810028,0-6.0559998,2.6450005-6.0559998,6.5950012v3.8810005
		c0,4.3829975,2.442997,6.5919991,6.4919968,6.5919991h5.3860016v-3.2800026H57.781601
		c-2.1080017,0-3.1450005-1.303997-3.1450005-3.0779991v-0.769001H63.6706009z"/>
	<path d="M75.8729019,24.5198975c1.5039978-1.1399994,2.2799988-2.9779968,2.2799988-5.3919983l-0.0009995-3.0950012h-3.6949997
		v3.4309998c0,1.6809998-0.6380005,3.1800003-2.4190063,3.1800003h-0.5709991c-1.7809982,0-2.385994-1.4990005-2.385994-3.1800003
		v-3.4309998h-3.6960068v3.0950012c0,2.4700012,0.7830048,4.3460007,2.3300018,5.4749985
		c-1.5039978,1.1389999-2.2799988,3.0750008-2.2799988,5.4870014v2.9929981h3.6959991v-3.3289986
		c0-1.6800003,0.6380005-3.2749977,2.4189987-3.2749977h0.5709991c1.7810059,0,2.3850021,1.5949974,2.3850021,3.2749977v3.3289986
		h3.6959991v-2.9929981C78.2018967,27.6218987,77.419899,25.6478996,75.8729019,24.5198975"/>
	<path d="M13.4173002,50.3630981h-2.0930004c-0.2410002,0-0.4309998-0.1920013-0.4309998-0.4230003
		c0-0.243,0.1899996-0.4360008,0.4309998-0.4360008h5.0869989c0.2280006,0,0.4309998,0.1930008,0.4309998,0.4360008
		c0,0.230999-0.2029991,0.4230003-0.4309998,0.4230003h-2.105999v7.8059998c0,0.243-0.2030001,0.447998-0.4440002,0.447998
		s-0.4439993-0.204998-0.4439993-0.447998V50.3630981z"/>
	<path d="M21.6636009,54.2207985c0-0.9230003-0.5450001-1.473999-1.4460011-1.473999
		c-0.5459995,0-1.066,0.204998-1.4589996,0.5769997v4.8579979c0,0.243-0.1900005,0.4350014-0.4309998,0.4350014
		c-0.2410011,0-0.4320011-0.1920013-0.4320011-0.4350014v-8.3699989c0-0.243,0.191-0.435997,0.4320011-0.435997
		c0.2409992,0,0.4309998,0.192997,0.4309998,0.435997v2.512001c0.4440002-0.243,0.9389992-0.3839989,1.4589996-0.3839989
		c1.3829994,0,2.309,0.947998,2.309,2.3449974v3.8969994c0,0.243-0.191,0.4350014-0.4319992,0.4350014
		c-0.2410011,0-0.4309998-0.1920013-0.4309998-0.4350014V54.2207985z"/>
	<path d="M24.327898,49.9531975c0-0.3209991,0.2539997-0.5769997,0.5710011-0.5769997
		c0.3179989,0,0.5709991,0.2560005,0.5709991,0.5769997c0,0.3200035-0.2530003,0.5890007-0.5709991,0.5890007
		C24.5818977,50.5421982,24.327898,50.273201,24.327898,49.9531975 M24.4678993,52.3751984
		c0-0.230999,0.1899986-0.4360008,0.4309998-0.4360008c0.2409992,0,0.4319992,0.2050018,0.4319992,0.4360008v5.8059998
		c0,0.2439995-0.191,0.4360008-0.4319992,0.4360008c-0.2410011,0-0.4309998-0.1920013-0.4309998-0.4360008V52.3751984z"/>
	<path d="M31.1156006,54.2207985c0-0.9230003-0.5450001-1.473999-1.4460011-1.473999
		c-0.5079994,0-1.0019989,0.0769997-1.4589996,0.2179985v5.2169991c0,0.243-0.1900005,0.4350014-0.4309998,0.4350014
		c-0.2410011,0-0.4320011-0.1920013-0.4320011-0.4350014v-5.3579979c0-0.2560005,0.1650009-0.473999,0.4060001-0.5639992
		c0.5960007-0.2180023,1.243-0.3199997,1.9160004-0.3199997c1.3829994,0,2.309,0.947998,2.309,2.3449974v3.8969994
		c0,0.243-0.191,0.4350014-0.4319992,0.4350014c-0.2410011,0-0.4309998-0.1920013-0.4309998-0.4350014V54.2207985z"/>
	<path d="M34.7062988,55.4000969v2.781002c0,0.2439995-0.1900024,0.4360008-0.4310036,0.4360008
		c-0.2409973,0-0.4319992-0.1920013-0.4319992-0.4360008v-8.3689995c0-0.2439995,0.1910019-0.4360008,0.4319992-0.4360008
		c0.2410011,0,0.4310036,0.1920013,0.4310036,0.4360008v4.6399994l2.6389999-2.3969994
		c0.0759964-0.0769997,0.1899986-0.1160011,0.2909966-0.1160011c0.2160034,0,0.432003,0.1800003,0.432003,0.4239998
		c0,0.1279984-0.0510025,0.243-0.1400032,0.3330002l-2.5489998,2.2420006l2.663002,2.947998
		c0.0760002,0.0769997,0.1149979,0.1930008,0.1149979,0.295002c0,0.2439995-0.1909981,0.4360008-0.4319992,0.4360008
		c-0.1269989,0-0.2409973-0.0510025-0.329998-0.1540031L34.7062988,55.4000969z"/>
	<path d="M39.3884964,49.9531975c0-0.3209991,0.2530022-0.5769997,0.5700035-0.5769997
		c0.3169975,0,0.5709991,0.2560005,0.5709991,0.5769997c0,0.3200035-0.2540016,0.5890007-0.5709991,0.5890007
		C39.6414986,50.5421982,39.3884964,50.273201,39.3884964,49.9531975 M39.5275002,52.3751984
		c0-0.230999,0.1899986-0.4360008,0.4309998-0.4360008c0.2419968,0,0.4319992,0.2050018,0.4319992,0.4360008v5.8059998
		c0,0.2439995-0.1900024,0.4360008-0.4319992,0.4360008c-0.2410011,0-0.4309998-0.1920013-0.4309998-0.4360008V52.3751984z"/>
	<path d="M46.1624985,54.2207985c0-0.9230003-0.545002-1.473999-1.446003-1.473999
		c-0.5079994,0-1.0019989,0.0769997-1.4589996,0.2179985v5.2169991c0,0.243-0.1899986,0.4350014-0.4309998,0.4350014
		s-0.4319992-0.1920013-0.4319992-0.4350014v-5.3579979c0-0.2560005,0.1650009-0.473999,0.4059982-0.5639992
		c0.5960007-0.2180023,1.243-0.3199997,1.9160004-0.3199997c1.3829994,0,2.3090019,0.947998,2.3090019,2.3449974v3.8969994
		c0,0.243-0.1910019,0.4350014-0.4319992,0.4350014c-0.2410011,0-0.4309998-0.1920013-0.4309998-0.4350014V54.2207985z"/>
	<path d="M52.3538017,58.1688004c-0.4440002,0.3069992-0.939003,0.447998-1.446003,0.447998
		c-1.3950005,0-2.3219986-0.947998-2.3219986-2.3450012v-1.9869995c0-1.3969994,0.9269981-2.3449974,2.3219986-2.3449974
		c0.6599998,0,1.3069992,0.1020012,1.9029999,0.3199997c0.2410011,0.0900002,0.406002,0.3079987,0.406002,0.5639992v6.1780014
		c0,1.4099998-0.9260025,2.3449974-2.3090019,2.3449974c-0.6219978,0-1.204998-0.1409988-1.7630005-0.3839989
		c-0.1529999-0.0639992-0.2539978-0.2179985-0.2539978-0.3850021c0-0.230999,0.1779976-0.4229965,0.4189987-0.4229965
		c0.0629997,0,0.1010017,0.0130005,0.1640015,0.0389977c0.4440002,0.1920013,0.9389992,0.3460007,1.4339981,0.3460007
		c0.901001,0,1.446003-0.6150017,1.446003-1.5379982V58.1688004z M52.3538017,52.964798
		c-0.4560013-0.1409988-0.9510002-0.2179985-1.446003-0.2179985c-0.9139977,0-1.4589996,0.5509987-1.4589996,1.473999v2.1150017
		c0,0.9230003,0.545002,1.473999,1.4589996,1.473999c0.5330009,0,1.0530014-0.2050018,1.446003-0.5769997V52.964798z"/>
	<path d="M59.1416016,55.3103981c-0.5960007-0.2560005-1.1040001-0.7179985-1.1040001-1.6279984
		c0-1.0629997,0.9269981-1.743,2.0559998-1.743c0.6209984,0,1.1159973,0.1279984,1.5469971,0.3209991
		c0.1650009,0.0760002,0.2670021,0.2299995,0.2670021,0.4099998c0,0.230999-0.1910019,0.3969994-0.4319992,0.3969994
		c-0.0500031,0-0.1010017-0.0130005-0.1650009-0.0379982c-0.3800011-0.1800003-0.8370018-0.2820015-1.3190002-0.2820015
		c-0.4939995,0-1.0909996,0.243-1.0909996,0.8969994c0,0.5130005,0.3549995,0.769001,0.6339989,0.8840027l1.1930008,0.4869995
		c0.7609978,0.3079987,1.269001,0.9230003,1.269001,1.704998c0,1.0639992-0.8630028,1.8969994-2.0300026,1.8969994
		c-0.6599998,0-1.192997-0.1409988-1.6749992-0.3719978c-0.1650009-0.0769997-0.2539978-0.2180023-0.2539978-0.3969994
		c0-0.2310028,0.1779976-0.4110031,0.4319992-0.4110031c0.0629997,0,0.1139984,0.026001,0.1779976,0.052002
		c0.4050026,0.1790009,0.8500023,0.3199997,1.3570023,0.3199997c0.5960007,0,1.1289978-0.3590012,1.1289978-0.9480019
		c0-0.5379982-0.2669983-0.8199997-0.7989998-1.0509987L59.1416016,55.3103981z"/>
	<path d="M68.1877975,56.1431999c0,1.473999-0.977005,2.473999-2.4360046,2.473999s-2.435997-1-2.435997-2.473999v-1.7299995
		c0-1.4740028,0.9769974-2.4740028,2.435997-2.4740028s2.4360046,1,2.4360046,2.4740028V56.1431999z M67.3247986,54.3491974
		c0-1-0.5830002-1.6019974-1.5730057-1.6019974c-0.9889984,0-1.572998,0.6019974-1.572998,1.6019974v1.8580017
		c0,1,0.5839996,1.6019974,1.572998,1.6019974c0.9900055,0,1.5730057-0.6019974,1.5730057-1.6019974V54.3491974z"/>
	<path d="M69.8626022,49.8119965c0-0.2439957,0.1899948-0.435997,0.4309998-0.435997
		c0.2409973,0,0.4319992,0.1920013,0.4319992,0.435997v8.3690033c0,0.2439995-0.1910019,0.435997-0.4319992,0.435997
		c-0.2410049,0-0.4309998-0.1919975-0.4309998-0.435997V49.8119965z"/>
	<path d="M76.3704987,52.3751984c0-0.230999,0.1899948-0.4360008,0.4309998-0.4360008
		c0.2409973,0,0.4319992,0.2050018,0.4319992,0.4360008v5.3580017c0,0.2559967-0.1650009,0.4869995-0.3940048,0.5629997
		c-0.6090012,0.204998-1.2559967,0.3209991-1.9150009,0.3209991c-1.4339981,0-2.3219986-0.9230003-2.3219986-2.3460007v-3.8959999
		c0-0.230999,0.1910019-0.4360008,0.4319992-0.4360008c0.2410049,0,0.4309998,0.2050018,0.4309998,0.4360008v3.9609985
		c0,0.9220009,0.5450058,1.4729996,1.4589996,1.4729996c0.4950027,0,0.989006-0.0759964,1.4460068-0.2169991V52.3751984z"/>
	<path d="M79.1111984,49.8119965c0-0.2439957,0.1899948-0.435997,0.4309998-0.435997
		c0.2419968,0,0.4319992,0.1920013,0.4319992,0.435997v2.2560043h1.4589996c0.2279968,0,0.4179993,0.178997,0.4179993,0.4229965
		c0,0.243-0.1900024,0.4100037-0.4179993,0.4100037h-1.4589996v3.9859962c0,0.5510025,0.3549957,0.8840027,0.798996,0.8840027
		c0.1900024,0,0.5449982-0.0510025,0.6720047-0.0510025c0.1779938,0,0.4059982,0.1540031,0.4059982,0.4099998
		c0,0.2050018-0.1389999,0.3850021-0.3550034,0.4230003c-0.2409973,0.038002-0.4819946,0.0639992-0.7229996,0.0639992
		c-0.9140015,0-1.6619949-0.7179985-1.6619949-1.7559967V49.8119965z"/>
	<path d="M83.2088928,49.9531975c0-0.3209991,0.2540054-0.5769997,0.5710068-0.5769997
		c0.3169937,0,0.5709991,0.2560005,0.5709991,0.5769997c0,0.3200035-0.2540054,0.5890007-0.5709991,0.5890007
		C83.4628983,50.5421982,83.2088928,50.273201,83.2088928,49.9531975 M83.3488998,52.3751984
		c0-0.230999,0.1899948-0.4360008,0.4309998-0.4360008c0.2409973,0,0.4319992,0.2050018,0.4319992,0.4360008v5.8059998
		c0,0.2439995-0.1910019,0.4360008-0.4319992,0.4360008c-0.2410049,0-0.4309998-0.1920013-0.4309998-0.4360008V52.3751984z"/>
	<path d="M90.8467026,56.1431999c0,1.473999-0.977005,2.473999-2.4360046,2.473999s-2.435997-1-2.435997-2.473999v-1.7299995
		c0-1.4740028,0.9769974-2.4740028,2.435997-2.4740028s2.4360046,1,2.4360046,2.4740028V56.1431999z M89.9837036,54.3491974
		c0-1-0.5840073-1.6019974-1.5730057-1.6019974s-1.572998,0.6019974-1.572998,1.6019974v1.8580017
		c0,1,0.5839996,1.6019974,1.572998,1.6019974s1.5730057-0.6019974,1.5730057-1.6019974V54.3491974z"/>
	<path d="M96.2258987,54.2207985c0-0.9230003-0.5460052-1.473999-1.4460068-1.473999
		c-0.5079956,0-1.0019989,0.0769997-1.4589996,0.2179985v5.2169991c0,0.243-0.1899948,0.4350014-0.4309998,0.4350014
		c-0.2409973,0-0.4319992-0.1920013-0.4319992-0.4350014v-5.3579979c0-0.2560005,0.1650009-0.473999,0.4059982-0.5639992
		c0.5960007-0.2180023,1.2440033-0.3199997,1.9160004-0.3199997c1.3830032,0,2.3090057,0.947998,2.3090057,2.3449974v3.8969994
		c0,0.243-0.1910019,0.4350014-0.4319992,0.4350014c-0.2410049,0-0.4309998-0.1920013-0.4309998-0.4350014V54.2207985z"/>
	<path d="M99.6896973,55.3103981c-0.5960007-0.2560005-1.1040039-0.7179985-1.1040039-1.6279984
		c0-1.0629997,0.9260025-1.743,2.0550003-1.743c0.6220016,0,1.1169968,0.1279984,1.5479965,0.3209991
		c0.1650009,0.0760002,0.2670059,0.2299995,0.2670059,0.4099998c0,0.230999-0.1910019,0.3969994-0.4319992,0.3969994
		c-0.0510025,0-0.1010056-0.0130005-0.1650009-0.0379982c-0.3800049-0.1800003-0.8370056-0.2820015-1.3190002-0.2820015
		c-0.4950027,0-1.0910034,0.243-1.0910034,0.8969994c0,0.5130005,0.3550034,0.769001,0.6340027,0.8840027l1.1930008,0.4869995
		c0.760994,0.3079987,1.2679977,0.9230003,1.2679977,1.704998c0,1.0639992-0.862999,1.8969994-2.0299988,1.8969994
		c-0.6590042,0-1.1920013-0.1409988-1.6740036-0.3719978c-0.1650009-0.0769997-0.2539978-0.2180023-0.2539978-0.3969994
		c0-0.2310028,0.1780014-0.4110031,0.4309998-0.4110031c0.064003,0,0.1149979,0.026001,0.1780014,0.052002
		c0.4059982,0.1790009,0.8499985,0.3199997,1.3580017,0.3199997c0.5960007,0,1.1279984-0.3590012,1.1279984-0.9480019
		c0-0.5379982-0.2659988-0.8199997-0.7990036-1.0509987L99.6896973,55.3103981z"/>
	<path d="M104.4858017,58.6170998c-0.3300018,0-0.6090012-0.2820015-0.6090012-0.6280022s0.2789993-0.6149979,0.6090012-0.6149979
		c0.3419952,0,0.6209946,0.2689972,0.6209946,0.6149979S104.8277969,58.6170998,104.4858017,58.6170998"/>
</g>
</svg>
